<svg width="44" height="44" viewBox="0 0 44 44" fill="none" xmlns="http://www.w3.org/2000/svg">
<path fill-rule="evenodd" clip-rule="evenodd" d="M30.0245 22.1905C31.8699 20.2231 33 17.5769 33 14.6667C33 8.59155 28.0751 3.66669 22 3.66669C15.9249 3.66669 11 8.59155 11 14.6667C11 17.5769 12.1301 20.2231 13.9755 22.1905C11.3787 23.3411 9.55989 25.7628 8.31238 28.1964C6.6884 31.3644 5.81831 34.9527 5.39872 37.1262C5.01549 39.1113 6.57845 40.7917 8.47832 40.7917H35.5217C37.4215 40.7917 38.9845 39.1113 38.6013 37.1262C38.1817 34.9527 37.3116 31.3644 35.6876 28.1964C34.4401 25.7628 32.6213 23.3411 30.0245 22.1905ZM30.25 14.6667C30.25 19.223 26.5563 22.9167 22 22.9167C17.4436 22.9167 13.75 19.223 13.75 14.6667C13.75 10.1103 17.4436 6.41669 22 6.41669C26.5563 6.41669 30.25 10.1103 30.25 14.6667ZM27.3484 24.2812C25.7651 25.1638 23.9413 25.6667 22 25.6667C20.0587 25.6667 18.2348 25.1638 16.6516 24.2812L16.6518 24.2833C14.1665 24.5594 12.2352 26.5723 10.7596 29.4508C9.31064 32.2774 8.50007 35.5692 8.09887 37.6474C8.07831 37.7539 8.10583 37.8388 8.16567 37.9083C8.22934 37.9822 8.33533 38.0417 8.47832 38.0417H35.5217C35.6646 38.0417 35.7706 37.9822 35.8343 37.9083C35.8941 37.8388 35.9217 37.7539 35.9011 37.6474C35.4999 35.5692 34.6893 32.2774 33.2404 29.4508C31.7648 26.5723 29.8335 24.5594 27.3481 24.2833L27.3484 24.2812Z" fill="#58194A"/>
</svg>
