<svg width="44" height="44" viewBox="0 0 44 44" fill="none" xmlns="http://www.w3.org/2000/svg">
<path fill-rule="evenodd" clip-rule="evenodd" d="M22 3.66669C12.1025 3.66669 3.66666 10.6265 3.66666 19.6964C3.66666 24.8509 6.43233 29.3632 10.5988 32.2561C10.6915 32.3205 10.8052 32.3959 10.9223 32.4721L9.86112 36.9707C9.7561 37.4159 9.89494 37.8856 10.2215 38.1899C10.5481 38.4943 11.0099 38.5824 11.4179 38.4195L12.6131 37.9434C13.3318 37.6574 14.2909 37.2763 15.2528 36.8958C16.2151 36.515 17.1783 36.1356 17.9061 35.8527C18.2706 35.711 18.5725 35.5948 18.7846 35.5151L18.8499 35.4907C19.8741 35.6455 20.9267 35.726 22 35.726C31.8975 35.726 40.3333 28.7662 40.3333 19.6964C40.3333 10.6265 31.8975 3.66669 22 3.66669ZM11 37.2674L11.4179 38.4195C11.4179 38.4196 11.4165 38.4201 11 37.2674ZM13.4083 32.1824C13.5332 31.6529 13.3121 31.1 12.8647 30.8232L12.836 30.8054L12.7553 30.7551C12.6867 30.7123 12.592 30.653 12.4874 30.5867C12.2721 30.4504 12.0354 30.2978 11.8924 30.1985C8.24652 27.6671 6.01332 23.864 6.01332 19.6964C6.01332 12.4223 12.943 6.13279 22 6.13279C31.0569 6.13279 37.9867 12.4223 37.9867 19.6964C37.9867 26.9704 31.0569 33.2599 22 33.2599C20.9498 33.2599 19.9242 33.1739 18.9321 33.0099C18.7505 32.9798 18.5997 33.0043 18.5795 33.0076C18.533 33.0146 18.4961 33.0231 18.4778 33.0275C18.439 33.0369 18.4062 33.0468 18.3889 33.0521C18.3506 33.0639 18.3102 33.0777 18.2753 33.09C18.2022 33.1157 18.1059 33.1512 17.9946 33.193C17.77 33.2773 17.4583 33.3973 17.0918 33.5398C16.3576 33.8253 15.3893 34.2067 14.426 34.5878C13.8224 34.8266 13.22 35.0655 12.6774 35.2811L13.4083 32.1824ZM15.0518 20.5809C15.0518 21.8283 14.0405 22.8396 12.793 22.8396C11.5456 22.8396 10.5343 21.8283 10.5343 20.5809C10.5343 19.3334 11.5456 18.3221 12.793 18.3221C14.0405 18.3221 15.0518 19.3334 15.0518 20.5809ZM24.0869 20.5809C24.0869 21.8283 23.0756 22.8396 21.8281 22.8396C20.5806 22.8396 19.5693 21.8283 19.5693 20.5809C19.5693 19.3334 20.5806 18.3221 21.8281 18.3221C23.0756 18.3221 24.0869 19.3334 24.0869 20.5809ZM30.8632 22.8396C32.1107 22.8396 33.122 21.8283 33.122 20.5809C33.122 19.3334 32.1107 18.3221 30.8632 18.3221C29.6157 18.3221 28.6044 19.3334 28.6044 20.5809C28.6044 21.8283 29.6157 22.8396 30.8632 22.8396Z" fill="#58194A"/>
</svg>
