<svg width="44" height="44" viewBox="0 0 44 44" fill="none" xmlns="http://www.w3.org/2000/svg">
<path d="M8.25 22.0402C8.25 25.7349 9.72058 29.1891 12.2655 31.7345L10.3176 33.6824C7.26747 30.6299 5.5 26.4794 5.5 22.0455C5.5 12.945 12.8853 5.57128 22 5.57128H22.0591L19.2178 2.85742L21.1191 0.859375L26.3613 6.00566C26.8984 6.5473 26.8931 7.42678 26.3452 7.95769L20.9178 13.2391L18.811 11.3103L22.0376 8.31163H22C14.4053 8.31163 8.25 14.4573 8.25 22.0402Z" fill="#58194A"/>
<path d="M35.7504 22.0348C35.7504 18.2372 34.1979 14.6862 31.5079 12.118L33.4529 10.173C36.6507 13.2546 38.5004 17.4975 38.5004 22.0348C38.5004 30.6581 31.8671 37.7315 23.4237 38.4554L26.4655 41.1776L26.3055 41.3667C25.7673 42.0029 25.229 42.6393 24.6766 43.2633L19.1644 38.4554C18.579 37.9621 18.5092 37.0879 19.0087 36.5088L24.0107 30.685L26.029 32.4044L23.3324 35.699C30.2987 35.034 35.7504 29.1672 35.7504 22.0348Z" fill="#58194A"/>
</svg>
