<svg width="44" height="44" viewBox="0 0 44 44" fill="none" xmlns="http://www.w3.org/2000/svg">
<path fill-rule="evenodd" clip-rule="evenodd" d="M22 2.29169C22.5299 2.29169 23.0127 2.59624 23.241 3.07453L28.7279 14.5732L41.3593 16.2383C41.8847 16.3076 42.3236 16.6726 42.4873 17.1766C42.6511 17.6806 42.5106 18.2339 42.1263 18.5987L32.8859 27.3704L35.2057 39.8982C35.3022 40.4193 35.0906 40.9494 34.6619 41.2609C34.2331 41.5724 33.6635 41.6098 33.1978 41.357L22 35.2795L10.8022 41.357C10.3365 41.6098 9.76686 41.5724 9.33812 41.2609C8.90938 40.9494 8.69782 40.4193 8.79431 39.8982L11.1141 27.3704L1.87371 18.5987C1.48935 18.2339 1.34889 17.6806 1.51265 17.1766C1.67642 16.6726 2.11526 16.3076 2.64066 16.2383L15.2721 14.5732L20.759 3.07453C20.9873 2.59624 21.47 2.29169 22 2.29169ZM22 6.85947L17.4327 16.4311C17.2322 16.8511 16.8328 17.1413 16.3714 17.2021L5.85687 18.5881L13.5486 25.8897C13.8862 26.2102 14.0387 26.6796 13.954 27.1373L12.023 37.5655L21.3441 32.5065C21.7532 32.2845 22.2468 32.2845 22.6559 32.5065L31.977 37.5655L30.046 27.1373C29.9613 26.6796 30.1138 26.2102 30.4514 25.8897L38.1431 18.5881L27.6286 17.2021C27.1671 17.1413 26.7678 16.8511 26.5673 16.4311L22 6.85947Z" fill="#58194A"/>
</svg>
